G04 Layer_Color=65535*
%FSAX44Y44*%
%MOMM*%
G71*
G01*
G75*
%ADD31C,0.2540*%
%ADD32C,0.2000*%
%ADD51C,0.2500*%
%ADD52C,0.6000*%
%ADD53C,0.1500*%
%ADD54C,0.1400*%
%ADD55C,0.1524*%
%ADD56C,0.1600*%
D31*
X00691010Y01003300D02*
G03*
X00691030Y01004862I00062500J00000000D01*
G01*
X00887854Y00688500D02*
G03*
X00835526Y00687605I-00025778J-00023020D01*
G01*
X00940621Y00685133D02*
G03*
X00887854Y00688500I-00027745J-00019653D01*
G01*
X00888622Y00992980D02*
G03*
X00940950Y00993875I00025778J00023020D01*
G01*
X00835855Y00996347D02*
G03*
X00888622Y00992980I00027745J00019653D01*
G01*
X00476053Y00861505D02*
G03*
X00502920Y00863142I00012534J00015586D01*
G01*
X00503484Y00887524D02*
G03*
X00475742Y00889050I-00014661J-00013603D01*
G01*
X00476053Y00754825D02*
G03*
X00502920Y00756462I00012534J00015586D01*
G01*
X00503484Y00780844D02*
G03*
X00475742Y00782370I-00014661J-00013603D01*
G01*
X01079500Y00605801D02*
X01228090D01*
X01134110Y01070621D02*
X01228090D01*
X01225550Y00605801D02*
Y00795804D01*
Y00872490D02*
Y01070621D01*
Y00605801D02*
X01230630Y00621041D01*
X01220470D02*
X01225550Y00605801D01*
X01220470Y01055381D02*
X01225550Y01070621D01*
X01230630Y01055381D01*
X01064260Y01096010D02*
Y01162050D01*
X00327660Y01087120D02*
Y01162050D01*
X00730239Y01159510D02*
X01064260D01*
X00327660D02*
X00653553D01*
X01049020Y01164590D02*
X01064260Y01159510D01*
X01049020Y01154430D02*
X01064260Y01159510D01*
X00327660D02*
X00342900Y01154430D01*
X00327660Y01159510D02*
X00342900Y01164590D01*
X00834876Y00686955D02*
X00835526Y00687605D01*
X00834876Y00630480D02*
Y00686955D01*
Y00630480D02*
X00940366D01*
X00940621Y00630225D01*
Y00685133D01*
X00830676Y00625980D02*
Y00704980D01*
X00944276D01*
Y00625980D02*
Y00704980D01*
X00830676Y00625980D02*
X00944276D01*
X00940950Y00993875D02*
X00941600Y00994525D01*
Y01051000D01*
X00836110D02*
X00941600D01*
X00835855Y01051255D02*
X00836110Y01051000D01*
X00835855Y00996347D02*
Y01051255D01*
X00945800Y00976500D02*
Y01055500D01*
X00832200Y00976500D02*
X00945800D01*
X00832200D02*
Y01055500D01*
X00945800D01*
X00964380Y00625810D02*
Y00791810D01*
Y00625810D02*
X01036380D01*
Y00791810D01*
X00964380D02*
X01036380D01*
X00963110Y00854410D02*
Y01020410D01*
Y00854410D02*
X01035110D01*
Y01020410D01*
X00963110D02*
X01035110D01*
X00467600Y00991680D02*
X00522600D01*
Y00961680D02*
Y00991680D01*
X00467600Y00961680D02*
X00522600D01*
X00467600D02*
Y00991680D01*
D32*
X00680630Y00873850D02*
Y00876600D01*
X00677880Y00873850D02*
X00680630D01*
Y00914100D02*
Y00916850D01*
X00677880D02*
X00680630D01*
X00637630D02*
X00640380D01*
X00637630Y00914100D02*
Y00916850D01*
Y00873850D02*
Y00876600D01*
Y00873850D02*
X00640380D01*
X00708510Y00988300D02*
Y00998300D01*
X00703510Y00993300D02*
X00713510D01*
X00968210Y01033210D02*
Y01057210D01*
X00571507Y00986870D02*
Y00987070D01*
X00564507Y00986870D02*
Y00987070D01*
X00817780Y00887420D02*
X00817980D01*
X00817780Y00880420D02*
X00817980D01*
X00548330Y00986870D02*
Y00987070D01*
X00541330Y00986870D02*
Y00987070D01*
X00886140Y00742080D02*
X00909640D01*
X00886140Y00792080D02*
X00909640D01*
Y00742080D02*
Y00792080D01*
X00886140Y00742080D02*
Y00792080D01*
X00658820Y00833020D02*
Y00833220D01*
X00651820Y00833020D02*
Y00833220D01*
X00587685Y00986870D02*
Y00987070D01*
X00594685Y00986870D02*
Y00987070D01*
X00615640Y00787300D02*
Y00787500D01*
X00608640Y00787300D02*
Y00787500D01*
X00603370Y00806730D02*
X00618370D01*
X00957270Y00753010D02*
Y00753210D01*
X00950270Y00753010D02*
Y00753210D01*
X00611124Y00991920D02*
X00621284D01*
X00634040Y00986870D02*
Y00987070D01*
X00641040Y00986870D02*
Y00987070D01*
X00452120Y00636270D02*
Y00801370D01*
X00401320D02*
X00452120D01*
X00331470D02*
X00356870D01*
X00331470Y00636270D02*
Y00801370D01*
Y00636270D02*
X00356870D01*
X00401320D02*
X00452120D01*
X00834700Y00766980D02*
Y00767180D01*
X00841700Y00766980D02*
Y00767180D01*
X00686970Y00799790D02*
X00687170D01*
X00686970Y00792790D02*
X00687170D01*
X00520390Y00734010D02*
Y00734210D01*
X00513390Y00734010D02*
Y00734210D01*
X00587402Y00879342D02*
X00587602D01*
X00587402Y00872342D02*
X00587602D01*
X00884870Y00825900D02*
X00908370D01*
X00884870Y00875900D02*
X00908370D01*
Y00825900D02*
Y00875900D01*
X00884870Y00825900D02*
Y00875900D01*
X00722530Y00792790D02*
X00722730D01*
X00722530Y00799790D02*
X00722730D01*
X00527360Y00862280D02*
Y00862480D01*
X00534360Y00862280D02*
Y00862480D01*
X00529990Y00814390D02*
X00579990D01*
X00529990Y00790890D02*
X00579990D01*
Y00814390D01*
X00529990Y00790890D02*
Y00814390D01*
X00958540Y00849530D02*
Y00849730D01*
X00951540Y00849530D02*
Y00849730D01*
X00452120Y00834390D02*
Y00999490D01*
X00401320D02*
X00452120D01*
X00331470D02*
X00356870D01*
X00331470Y00834390D02*
Y00999490D01*
Y00834390D02*
X00356870D01*
X00401320D02*
X00452120D01*
X00554890Y00746450D02*
X00555090D01*
X00554890Y00739450D02*
X00555090D01*
X00670460Y00945840D02*
X00670660D01*
X00670460Y00938840D02*
X00670660D01*
X00845720Y00816300D02*
X00845920D01*
X00845720Y00809300D02*
X00845920D01*
X00833430Y00854610D02*
Y00854810D01*
X00840430Y00854610D02*
Y00854810D01*
X00469710Y01047920D02*
X00477710D01*
X00469710Y01062920D02*
X00477710D01*
X00515310Y00646330D02*
Y00646530D01*
X00508310Y00646330D02*
Y00646530D01*
X00794920Y00729940D02*
X00795120D01*
X00794920Y00722940D02*
X00795120D01*
X00483070Y00917690D02*
Y00941690D01*
X00751270Y00783590D02*
X00775270D01*
X00794920Y00743910D02*
X00795120D01*
X00794920Y00736910D02*
X00795120D01*
X00605310Y00641910D02*
Y00654410D01*
X00553310Y00641910D02*
X00605310D01*
X00553310D02*
Y00644910D01*
X00552810Y00709410D02*
Y00711910D01*
X00605310D01*
Y00696910D02*
Y00711910D01*
X00951540Y00789840D02*
Y00790040D01*
X00958540Y00789840D02*
Y00790040D01*
X00951540Y00883820D02*
Y00884020D01*
X00958540Y00883820D02*
Y00884020D01*
X00631790Y00833070D02*
Y00833270D01*
X00643290Y00833070D02*
Y00833270D01*
X00518830Y00690780D02*
Y00690980D01*
X00507330Y00690780D02*
Y00690980D01*
X00675040Y01007010D02*
Y01007210D01*
X00663540Y01007010D02*
Y01007210D01*
X00519308Y00805868D02*
Y00829868D01*
X00640942Y00680770D02*
X00644274D01*
X00642608D01*
Y00690767D01*
X00640942Y00689101D01*
X00649273Y00682436D02*
X00650939Y00680770D01*
X00654271D01*
X00655937Y00682436D01*
Y00689101D01*
X00654271Y00690767D01*
X00650939D01*
X00649273Y00689101D01*
Y00687434D01*
X00650939Y00685768D01*
X00655937D01*
X00659269Y00680770D02*
Y00682436D01*
X00660936D01*
Y00680770D01*
X00659269D01*
X00667600Y00689101D02*
X00669266Y00690767D01*
X00672598D01*
X00674265Y00689101D01*
Y00687434D01*
X00672598Y00685768D01*
X00670932D01*
X00672598D01*
X00674265Y00684102D01*
Y00682436D01*
X00672598Y00680770D01*
X00669266D01*
X00667600Y00682436D01*
X00677597Y00680770D02*
Y00682436D01*
X00679263D01*
Y00680770D01*
X00677597D01*
X00692592D02*
X00685928D01*
X00692592Y00687434D01*
Y00689101D01*
X00690926Y00690767D01*
X00687594D01*
X00685928Y00689101D01*
X00695924D02*
X00697590Y00690767D01*
X00700923D01*
X00702589Y00689101D01*
Y00682436D01*
X00700923Y00680770D01*
X00697590D01*
X00695924Y00682436D01*
Y00689101D01*
X00705921Y00680770D02*
X00709253D01*
X00707587D01*
Y00690767D01*
X00705921Y00689101D01*
X00714252D02*
X00715918Y00690767D01*
X00719250D01*
X00720916Y00689101D01*
Y00687434D01*
X00719250Y00685768D01*
X00720916Y00684102D01*
Y00682436D01*
X00719250Y00680770D01*
X00715918D01*
X00714252Y00682436D01*
Y00684102D01*
X00715918Y00685768D01*
X00714252Y00687434D01*
Y00689101D01*
X00715918Y00685768D02*
X00719250D01*
X00620948Y00701673D02*
X00617616D01*
X00615950Y00703339D01*
Y00706671D01*
X00617616Y00708337D01*
X00620948D01*
X00622615Y00706671D01*
Y00705005D01*
X00615950D01*
X00632611Y00711669D02*
Y00701673D01*
X00627613D01*
X00625947Y00703339D01*
Y00706671D01*
X00627613Y00708337D01*
X00632611D01*
X00635944D02*
X00642608D01*
X00635944Y00701673D01*
X00642608D01*
X00655937D02*
X00662602Y00708337D01*
X00675931Y00711669D02*
Y00701673D01*
X00680929D01*
X00682595Y00703339D01*
Y00710003D01*
X00680929Y00711669D01*
X00675931D01*
X00685928D02*
X00689260D01*
X00687594D01*
Y00701673D01*
X00685928D01*
X00689260D01*
X00700923Y00710003D02*
X00699257Y00711669D01*
X00695924D01*
X00694258Y00710003D01*
Y00708337D01*
X00695924Y00706671D01*
X00699257D01*
X00700923Y00705005D01*
Y00703339D01*
X00699257Y00701673D01*
X00695924D01*
X00694258Y00703339D01*
X00704255Y00701673D02*
Y00708337D01*
X00707587Y00711669D01*
X00710919Y00708337D01*
Y00701673D01*
Y00706671D01*
X00704255D01*
X00714252Y00711669D02*
Y00701673D01*
X00720916D01*
X00620948Y00732572D02*
Y00725907D01*
X00624281Y00722575D01*
X00627613Y00725907D01*
Y00732572D01*
X00635944Y00722575D02*
X00632611D01*
X00630945Y00724241D01*
Y00727574D01*
X00632611Y00729240D01*
X00635944D01*
X00637610Y00727574D01*
Y00725907D01*
X00630945D01*
X00640942Y00729240D02*
Y00722575D01*
Y00725907D01*
X00642608Y00727574D01*
X00644274Y00729240D01*
X00645940D01*
X00650939Y00722575D02*
X00655937D01*
X00657603Y00724241D01*
X00655937Y00725907D01*
X00652605D01*
X00650939Y00727574D01*
X00652605Y00729240D01*
X00657603D01*
X00660936Y00722575D02*
X00664268D01*
X00662602D01*
Y00729240D01*
X00660936D01*
X00670932Y00722575D02*
X00674265D01*
X00675931Y00724241D01*
Y00727574D01*
X00674265Y00729240D01*
X00670932D01*
X00669266Y00727574D01*
Y00724241D01*
X00670932Y00722575D01*
X00679263D02*
Y00729240D01*
X00684261D01*
X00685928Y00727574D01*
Y00722575D01*
X00689260Y00729240D02*
X00690926D01*
Y00727574D01*
X00689260D01*
Y00729240D01*
Y00724241D02*
X00690926D01*
Y00722575D01*
X00689260D01*
Y00724241D01*
X00697590Y00722575D02*
X00700923D01*
X00699257D01*
Y00732572D01*
X00697590Y00730906D01*
X00705921Y00722575D02*
Y00724241D01*
X00707587D01*
Y00722575D01*
X00705921D01*
X00714252Y00730906D02*
X00715918Y00732572D01*
X00719250D01*
X00720916Y00730906D01*
Y00724241D01*
X00719250Y00722575D01*
X00715918D01*
X00714252Y00724241D01*
Y00730906D01*
X00597623Y00746810D02*
Y00753475D01*
X00599289D01*
X00600955Y00751808D01*
Y00746810D01*
Y00751808D01*
X00602621Y00753475D01*
X00604287Y00751808D01*
Y00746810D01*
X00609286D02*
X00612618D01*
X00614284Y00748476D01*
Y00751808D01*
X00612618Y00753475D01*
X00609286D01*
X00607619Y00751808D01*
Y00748476D01*
X00609286Y00746810D01*
X00624281Y00756807D02*
Y00746810D01*
X00619282D01*
X00617616Y00748476D01*
Y00751808D01*
X00619282Y00753475D01*
X00624281D01*
X00632611Y00746810D02*
X00629279D01*
X00627613Y00748476D01*
Y00751808D01*
X00629279Y00753475D01*
X00632611D01*
X00634277Y00751808D01*
Y00750142D01*
X00627613D01*
X00637610Y00746810D02*
X00640942D01*
X00639276D01*
Y00756807D01*
X00637610D01*
X00645940Y00753475D02*
X00647607D01*
Y00751808D01*
X00645940D01*
Y00753475D01*
Y00748476D02*
X00647607D01*
Y00746810D01*
X00645940D01*
Y00748476D01*
X00654271Y00743478D02*
Y00753475D01*
X00659269D01*
X00660936Y00751808D01*
Y00748476D01*
X00659269Y00746810D01*
X00654271D01*
X00664268Y00753475D02*
Y00748476D01*
X00665934Y00746810D01*
X00670932D01*
Y00753475D01*
X00674265Y00746810D02*
Y00753475D01*
X00675931D01*
X00677597Y00751808D01*
Y00746810D01*
Y00751808D01*
X00679263Y00753475D01*
X00680929Y00751808D01*
Y00746810D01*
X00684261Y00743478D02*
Y00753475D01*
X00689260D01*
X00690926Y00751808D01*
Y00748476D01*
X00689260Y00746810D01*
X00684261D01*
X00694258Y00756807D02*
Y00746810D01*
X00699257D01*
X00700923Y00748476D01*
Y00755141D01*
X00699257Y00756807D01*
X00694258D01*
X00704255Y00746810D02*
Y00756807D01*
X00707587Y00753475D01*
X00710919Y00756807D01*
Y00746810D01*
X00714252Y00756807D02*
X00720916Y00746810D01*
Y00756807D02*
X00714252Y00746810D01*
X01055370Y00868995D02*
Y00862330D01*
X01048706Y00868995D01*
X01047039D01*
X01045373Y00867328D01*
Y00863996D01*
X01047039Y00862330D01*
X01055370Y00877325D02*
X01045373D01*
X01050372Y00872327D01*
Y00878991D01*
X01045373Y00882324D02*
X01052038D01*
X01055370Y00885656D01*
X01052038Y00888988D01*
X01045373D01*
X01055370Y00640395D02*
Y00633730D01*
X01048706Y00640395D01*
X01047039D01*
X01045373Y00638728D01*
Y00635396D01*
X01047039Y00633730D01*
X01055370Y00648725D02*
X01045373D01*
X01050372Y00643727D01*
Y00650391D01*
X01045373Y00653724D02*
X01052038D01*
X01055370Y00657056D01*
X01052038Y00660388D01*
X01045373D01*
X01055370Y00985520D02*
X01045373D01*
Y00990518D01*
X01047039Y00992185D01*
X01050372D01*
X01052038Y00990518D01*
Y00985520D01*
X01045373Y00995517D02*
X01055370D01*
X01052038Y00998849D01*
X01055370Y01002181D01*
X01045373D01*
X01055370Y01005514D02*
X01045373D01*
X01048706Y01008846D01*
X01045373Y01012178D01*
X01055370D01*
Y00756920D02*
X01045373D01*
Y00761918D01*
X01047039Y00763585D01*
X01050372D01*
X01052038Y00761918D01*
Y00756920D01*
X01045373Y00766917D02*
X01055370D01*
X01052038Y00770249D01*
X01055370Y00773581D01*
X01045373D01*
X01055370Y00776914D02*
X01045373D01*
X01048706Y00780246D01*
X01045373Y00783578D01*
X01055370D01*
X01047039Y00681458D02*
X01045373Y00679792D01*
Y00676460D01*
X01047039Y00674793D01*
X01053704D01*
X01055370Y00676460D01*
Y00679792D01*
X01053704Y00681458D01*
X01050372D01*
Y00678126D01*
X01055370Y00684790D02*
X01045373D01*
X01055370Y00691455D01*
X01045373D01*
Y00694787D02*
X01055370D01*
Y00699785D01*
X01053704Y00701451D01*
X01047039D01*
X01045373Y00699785D01*
Y00694787D01*
X01047039Y00722521D02*
X01045373Y00720855D01*
Y00717523D01*
X01047039Y00715857D01*
X01053704D01*
X01055370Y00717523D01*
Y00720855D01*
X01053704Y00722521D01*
X01050372D01*
Y00719189D01*
X01055370Y00725853D02*
X01045373D01*
X01055370Y00732518D01*
X01045373D01*
Y00735850D02*
X01055370D01*
Y00740849D01*
X01053704Y00742515D01*
X01047039D01*
X01045373Y00740849D01*
Y00735850D01*
X01047039Y00910058D02*
X01045373Y00908392D01*
Y00905060D01*
X01047039Y00903393D01*
X01053704D01*
X01055370Y00905060D01*
Y00908392D01*
X01053704Y00910058D01*
X01050372D01*
Y00906726D01*
X01055370Y00913390D02*
X01045373D01*
X01055370Y00920055D01*
X01045373D01*
Y00923387D02*
X01055370D01*
Y00928385D01*
X01053704Y00930051D01*
X01047039D01*
X01045373Y00928385D01*
Y00923387D01*
X01047039Y00951121D02*
X01045373Y00949455D01*
Y00946123D01*
X01047039Y00944457D01*
X01053704D01*
X01055370Y00946123D01*
Y00949455D01*
X01053704Y00951121D01*
X01050372D01*
Y00947789D01*
X01055370Y00954453D02*
X01045373D01*
X01055370Y00961118D01*
X01045373D01*
Y00964450D02*
X01055370D01*
Y00969449D01*
X01053704Y00971115D01*
X01047039D01*
X01045373Y00969449D01*
Y00964450D01*
X00915984Y00617931D02*
X00914318Y00619597D01*
X00910986D01*
X00909320Y00617931D01*
Y00611266D01*
X00910986Y00609600D01*
X00914318D01*
X00915984Y00611266D01*
Y00614598D01*
X00912652D01*
X00919317Y00609600D02*
Y00619597D01*
X00925981Y00609600D01*
Y00619597D01*
X00929314D02*
Y00609600D01*
X00934312D01*
X00935978Y00611266D01*
Y00617931D01*
X00934312Y00619597D01*
X00929314D01*
X00855024Y00609600D02*
X00848360D01*
X00855024Y00616264D01*
Y00617931D01*
X00853358Y00619597D01*
X00850026D01*
X00848360Y00617931D01*
X00863355Y00609600D02*
Y00619597D01*
X00858357Y00614598D01*
X00865021D01*
X00868354Y00619597D02*
Y00612932D01*
X00871686Y00609600D01*
X00875018Y00612932D01*
Y00619597D01*
X00962660Y01040444D02*
Y01033780D01*
X00955995Y01040444D01*
X00954329D01*
X00952663Y01038778D01*
Y01035446D01*
X00954329Y01033780D01*
X00962660Y01048775D02*
X00952663D01*
X00957662Y01043777D01*
Y01050441D01*
X00952663Y01053774D02*
X00959328D01*
X00962660Y01057106D01*
X00959328Y01060438D01*
X00952663D01*
X00817169Y01036684D02*
X00815503Y01035018D01*
Y01031686D01*
X00817169Y01030020D01*
X00823834D01*
X00825500Y01031686D01*
Y01035018D01*
X00823834Y01036684D01*
X00820502D01*
Y01033352D01*
X00825500Y01040017D02*
X00815503D01*
X00825500Y01046681D01*
X00815503D01*
Y01050014D02*
X00825500D01*
Y01055012D01*
X00823834Y01056678D01*
X00817169D01*
X00815503Y01055012D01*
Y01050014D01*
D51*
X00640380Y00867350D02*
G03*
X00640380Y00867350I-00001250J00000000D01*
G01*
X00873640Y00795130D02*
G03*
X00873640Y00795130I-00001250J00000000D01*
G01*
X00872370Y00878950D02*
G03*
X00872370Y00878950I-00001250J00000000D01*
G01*
X00584290Y00828140D02*
G03*
X00584290Y00828140I-00001250J00000000D01*
G01*
D52*
X00899140Y00782080D02*
G03*
X00899140Y00782080I-00003000J00000000D01*
G01*
X00897870Y00865900D02*
G03*
X00897870Y00865900I-00003000J00000000D01*
G01*
X00572990Y00804390D02*
G03*
X00572990Y00804390I-00003000J00000000D01*
G01*
D53*
X00827090Y00907100D02*
Y00967100D01*
X00947090D01*
Y00907100D02*
Y00967100D01*
X00827090Y00907100D02*
X00947090D01*
D54*
X00532985Y01066228D02*
X00528320D01*
Y01062729D01*
X00530653Y01063895D01*
X00531819D01*
X00532985Y01062729D01*
Y01060396D01*
X00531819Y01059230D01*
X00529486D01*
X00528320Y01060396D01*
X00542315Y01059230D02*
Y01066228D01*
X00545814D01*
X00546981Y01065061D01*
Y01062729D01*
X00545814Y01061563D01*
X00542315D01*
X00544648D02*
X00546981Y01059230D01*
X00549313Y01066228D02*
X00553978Y01059230D01*
Y01066228D02*
X00549313Y01059230D01*
X00563309Y01066228D02*
X00567974D01*
X00565641D01*
Y01059230D01*
X00570307Y01066228D02*
X00574972Y01059230D01*
Y01066228D02*
X00570307Y01059230D01*
X00584302Y01066228D02*
Y01059230D01*
X00587801D01*
X00588967Y01060396D01*
Y01065061D01*
X00587801Y01066228D01*
X00584302D01*
X00591300D02*
X00595965D01*
X00593632D01*
Y01059230D01*
X00598298D02*
Y01066228D01*
X00601796D01*
X00602963Y01065061D01*
Y01062729D01*
X00601796Y01061563D01*
X00598298D01*
X00600630D02*
X00602963Y01059230D01*
X00612293D02*
Y01066228D01*
X00616958Y01059230D01*
Y01066228D01*
X00623956Y01065061D02*
X00622790Y01066228D01*
X00620457D01*
X00619291Y01065061D01*
Y01060396D01*
X00620457Y01059230D01*
X00622790D01*
X00623956Y01060396D01*
X00633286Y01065061D02*
X00634453Y01066228D01*
X00636785D01*
X00637951Y01065061D01*
Y01060396D01*
X00636785Y01059230D01*
X00634453D01*
X00633286Y01060396D01*
Y01065061D01*
X01005840Y01067498D02*
Y01060500D01*
X01009339D01*
X01010505Y01061666D01*
Y01066331D01*
X01009339Y01067498D01*
X01005840D01*
X01017503D02*
X01012838D01*
Y01063999D01*
X01015170Y01065165D01*
X01016337D01*
X01017503Y01063999D01*
Y01061666D01*
X01016337Y01060500D01*
X01014004D01*
X01012838Y01061666D01*
X00700625Y01065061D02*
X00699459Y01066228D01*
X00697126D01*
X00695960Y01065061D01*
Y01060396D01*
X00697126Y01059230D01*
X00699459D01*
X00700625Y01060396D01*
X00702958Y01059230D02*
X00705290D01*
X00704124D01*
Y01066228D01*
X00702958Y01065061D01*
X00713454Y01066228D02*
X00708789D01*
Y01062729D01*
X00711122Y01063895D01*
X00712288D01*
X00713454Y01062729D01*
Y01060396D01*
X00712288Y01059230D01*
X00709956D01*
X00708789Y01060396D01*
X00623062Y00862266D02*
Y00856434D01*
X00624228Y00855268D01*
X00626561D01*
X00627727Y00856434D01*
Y00862266D01*
X00630060Y00861099D02*
X00631226Y00862266D01*
X00633559D01*
X00634725Y00861099D01*
Y00859933D01*
X00633559Y00858767D01*
X00632392D01*
X00633559D01*
X00634725Y00857601D01*
Y00856434D01*
X00633559Y00855268D01*
X00631226D01*
X00630060Y00856434D01*
X00495818Y00699405D02*
X00494652Y00698239D01*
Y00695906D01*
X00495818Y00694740D01*
X00500484D01*
X00501650Y00695906D01*
Y00698239D01*
X00500484Y00699405D01*
X00501650Y00701738D02*
Y00704070D01*
Y00702904D01*
X00494652D01*
X00495818Y00701738D01*
Y00643475D02*
X00494652Y00642309D01*
Y00639976D01*
X00495818Y00638810D01*
X00500484D01*
X00501650Y00639976D01*
Y00642309D01*
X00500484Y00643475D01*
X00501650Y00650473D02*
Y00645808D01*
X00496985Y00650473D01*
X00495818D01*
X00494652Y00649307D01*
Y00646974D01*
X00495818Y00645808D01*
X00821275Y00816092D02*
X00820109Y00817258D01*
X00817776D01*
X00816610Y00816092D01*
Y00811426D01*
X00817776Y00810260D01*
X00820109D01*
X00821275Y00811426D01*
X00823608Y00816092D02*
X00824774Y00817258D01*
X00827107D01*
X00828273Y00816092D01*
Y00814925D01*
X00827107Y00813759D01*
X00825940D01*
X00827107D01*
X00828273Y00812593D01*
Y00811426D01*
X00827107Y00810260D01*
X00824774D01*
X00823608Y00811426D01*
X00673618Y01034939D02*
X00672452Y01033773D01*
Y01031440D01*
X00673618Y01030274D01*
X00678284D01*
X00679450Y01031440D01*
Y01033773D01*
X00678284Y01034939D01*
X00679450Y01040771D02*
X00672452D01*
X00675951Y01037272D01*
Y01041937D01*
X00529055Y00744971D02*
X00527889Y00746138D01*
X00525556D01*
X00524390Y00744971D01*
Y00740306D01*
X00525556Y00739140D01*
X00527889D01*
X00529055Y00740306D01*
X00536053Y00746138D02*
X00531388D01*
Y00742639D01*
X00533720Y00743805D01*
X00534887D01*
X00536053Y00742639D01*
Y00740306D01*
X00534887Y00739140D01*
X00532554D01*
X00531388Y00740306D01*
X00695545Y00944361D02*
X00694379Y00945528D01*
X00692046D01*
X00690880Y00944361D01*
Y00939696D01*
X00692046Y00938530D01*
X00694379D01*
X00695545Y00939696D01*
X00702543Y00945528D02*
X00700210Y00944361D01*
X00697878Y00942029D01*
Y00939696D01*
X00699044Y00938530D01*
X00701377D01*
X00702543Y00939696D01*
Y00940863D01*
X00701377Y00942029D01*
X00697878D01*
X00722215Y00786881D02*
X00721049Y00788048D01*
X00718716D01*
X00717550Y00786881D01*
Y00782216D01*
X00718716Y00781050D01*
X00721049D01*
X00722215Y00782216D01*
X00724548Y00788048D02*
X00729213D01*
Y00786881D01*
X00724548Y00782216D01*
Y00781050D01*
X00685385Y00786881D02*
X00684219Y00788048D01*
X00681886D01*
X00680720Y00786881D01*
Y00782216D01*
X00681886Y00781050D01*
X00684219D01*
X00685385Y00782216D01*
X00687718Y00786881D02*
X00688884Y00788048D01*
X00691217D01*
X00692383Y00786881D01*
Y00785715D01*
X00691217Y00784549D01*
X00692383Y00783383D01*
Y00782216D01*
X00691217Y00781050D01*
X00688884D01*
X00687718Y00782216D01*
Y00783383D01*
X00688884Y00784549D01*
X00687718Y00785715D01*
Y00786881D01*
X00688884Y00784549D02*
X00691217D01*
X00589799Y00957215D02*
X00588632Y00956049D01*
Y00953716D01*
X00589799Y00952550D01*
X00594464D01*
X00595630Y00953716D01*
Y00956049D01*
X00594464Y00957215D01*
Y00959548D02*
X00595630Y00960714D01*
Y00963047D01*
X00594464Y00964213D01*
X00589799D01*
X00588632Y00963047D01*
Y00960714D01*
X00589799Y00959548D01*
X00590965D01*
X00592131Y00960714D01*
Y00964213D01*
X00635518Y00803545D02*
X00634352Y00802379D01*
Y00800046D01*
X00635518Y00798880D01*
X00640184D01*
X00641350Y00800046D01*
Y00802379D01*
X00640184Y00803545D01*
X00641350Y00805878D02*
Y00808210D01*
Y00807044D01*
X00634352D01*
X00635518Y00805878D01*
Y00811709D02*
X00634352Y00812876D01*
Y00815208D01*
X00635518Y00816374D01*
X00640184D01*
X00641350Y00815208D01*
Y00812876D01*
X00640184Y00811709D01*
X00635518D01*
X00652029Y00804815D02*
X00650862Y00803649D01*
Y00801316D01*
X00652029Y00800150D01*
X00656694D01*
X00657860Y00801316D01*
Y00803649D01*
X00656694Y00804815D01*
X00657860Y00807148D02*
Y00809480D01*
Y00808314D01*
X00650862D01*
X00652029Y00807148D01*
X00657860Y00812979D02*
Y00815312D01*
Y00814146D01*
X00650862D01*
X00652029Y00812979D01*
X00800955Y00874561D02*
X00799789Y00875728D01*
X00797456D01*
X00796290Y00874561D01*
Y00869896D01*
X00797456Y00868730D01*
X00799789D01*
X00800955Y00869896D01*
X00803288Y00868730D02*
X00805620D01*
X00804454D01*
Y00875728D01*
X00803288Y00874561D01*
X00813784Y00868730D02*
X00809119D01*
X00813784Y00873395D01*
Y00874561D01*
X00812618Y00875728D01*
X00810285D01*
X00809119Y00874561D01*
X00752221Y00799097D02*
Y00792099D01*
X00755720D01*
X00756886Y00793265D01*
Y00797931D01*
X00755720Y00799097D01*
X00752221D01*
X00759219Y00792099D02*
X00761551D01*
X00760385D01*
Y00799097D01*
X00759219Y00797931D01*
X00513080Y00953198D02*
Y00946200D01*
X00516579D01*
X00517745Y00947366D01*
Y00952031D01*
X00516579Y00953198D01*
X00513080D01*
X00524743Y00946200D02*
X00520078D01*
X00524743Y00950865D01*
Y00952031D01*
X00523577Y00953198D01*
X00521244D01*
X00520078Y00952031D01*
X00612254Y00948740D02*
X00619252D01*
Y00952239D01*
X00618086Y00953405D01*
X00613420D01*
X00612254Y00952239D01*
Y00948740D01*
X00613420Y00955738D02*
X00612254Y00956904D01*
Y00959237D01*
X00613420Y00960403D01*
X00614587D01*
X00615753Y00959237D01*
Y00958070D01*
Y00959237D01*
X00616919Y00960403D01*
X00618086D01*
X00619252Y00959237D01*
Y00956904D01*
X00618086Y00955738D01*
X00593712Y00820470D02*
X00600710D01*
Y00823969D01*
X00599544Y00825135D01*
X00594879D01*
X00593712Y00823969D01*
Y00820470D01*
X00600710Y00830967D02*
X00593712D01*
X00597211Y00827468D01*
Y00832133D01*
X00478375Y01003998D02*
X00476043D01*
X00477209D01*
Y00998166D01*
X00476043Y00997000D01*
X00474876D01*
X00473710Y00998166D01*
X00480708Y00997000D02*
Y01003998D01*
X00484207D01*
X00485373Y01002831D01*
Y01000499D01*
X00484207Y00999333D01*
X00480708D01*
X00487705Y00997000D02*
X00490038D01*
X00488872D01*
Y01003998D01*
X00487705Y01002831D01*
X00430530Y00816610D02*
Y00823608D01*
X00434029D01*
X00435195Y00822441D01*
Y00820109D01*
X00434029Y00818943D01*
X00430530D01*
X00437528Y00816610D02*
X00439860D01*
X00438694D01*
Y00823608D01*
X00437528Y00822441D01*
X01012190Y00833170D02*
X01005192D01*
Y00836669D01*
X01006358Y00837835D01*
X01008691D01*
X01009857Y00836669D01*
Y00833170D01*
X01012190Y00844833D02*
Y00840168D01*
X01007525Y00844833D01*
X01006358D01*
X01005192Y00843667D01*
Y00841334D01*
X01006358Y00840168D01*
X00436880Y00621030D02*
Y00628028D01*
X00440379D01*
X00441545Y00626861D01*
Y00624529D01*
X00440379Y00623363D01*
X00436880D01*
X00443878Y00626861D02*
X00445044Y00628028D01*
X00447377D01*
X00448543Y00626861D01*
Y00625695D01*
X00447377Y00624529D01*
X00446210D01*
X00447377D01*
X00448543Y00623363D01*
Y00622196D01*
X00447377Y00621030D01*
X00445044D01*
X00443878Y00622196D01*
X01013460Y00798880D02*
X01006462D01*
Y00802379D01*
X01007628Y00803545D01*
X01009961D01*
X01011127Y00802379D01*
Y00798880D01*
X01013460Y00809377D02*
X01006462D01*
X01009961Y00805878D01*
Y00810543D01*
X00890270Y01060500D02*
Y01067498D01*
X00893769D01*
X00894935Y01066331D01*
Y01063999D01*
X00893769Y01062833D01*
X00890270D01*
X00901933Y01067498D02*
X00897268D01*
Y01063999D01*
X00899600Y01065165D01*
X00900767D01*
X00901933Y01063999D01*
Y01061666D01*
X00900767Y01060500D01*
X00898434D01*
X00897268Y01061666D01*
X00516220Y01008880D02*
Y01015878D01*
X00519719D01*
X00520885Y01014712D01*
Y01012379D01*
X00519719Y01011213D01*
X00516220D01*
X00527883Y01015878D02*
X00525550Y01014712D01*
X00523218Y01012379D01*
Y01010046D01*
X00524384Y01008880D01*
X00526717D01*
X00527883Y01010046D01*
Y01011213D01*
X00526717Y01012379D01*
X00523218D01*
X00820547Y00620903D02*
X00813549D01*
Y00624402D01*
X00814715Y00625568D01*
X00817048D01*
X00818214Y00624402D01*
Y00620903D01*
X00813549Y00627901D02*
Y00632566D01*
X00814715D01*
X00819381Y00627901D01*
X00820547D01*
X00817880Y00736600D02*
Y00743598D01*
X00821379D01*
X00822545Y00742431D01*
Y00740099D01*
X00821379Y00738933D01*
X00817880D01*
X00820213D02*
X00822545Y00736600D01*
X00824878D02*
X00827210D01*
X00826044D01*
Y00743598D01*
X00824878Y00742431D01*
X00815340Y00721360D02*
Y00728358D01*
X00818839D01*
X00820005Y00727191D01*
Y00724859D01*
X00818839Y00723693D01*
X00815340D01*
X00817673D02*
X00820005Y00721360D01*
X00827003D02*
X00822338D01*
X00827003Y00726025D01*
Y00727191D01*
X00825837Y00728358D01*
X00823504D01*
X00822338Y00727191D01*
X00483870Y01032560D02*
Y01039558D01*
X00487369D01*
X00488535Y01038391D01*
Y01036059D01*
X00487369Y01034893D01*
X00483870D01*
X00486203D02*
X00488535Y01032560D01*
X00490868Y01038391D02*
X00492034Y01039558D01*
X00494367D01*
X00495533Y01038391D01*
Y01037225D01*
X00494367Y01036059D01*
X00493200D01*
X00494367D01*
X00495533Y01034893D01*
Y01033726D01*
X00494367Y01032560D01*
X00492034D01*
X00490868Y01033726D01*
X00824230Y00852170D02*
X00817232D01*
Y00855669D01*
X00818399Y00856835D01*
X00820731D01*
X00821897Y00855669D01*
Y00852170D01*
Y00854503D02*
X00824230Y00856835D01*
Y00862667D02*
X00817232D01*
X00820731Y00859168D01*
Y00863833D01*
X00946150Y00844600D02*
X00939152D01*
Y00848099D01*
X00940319Y00849265D01*
X00942651D01*
X00943817Y00848099D01*
Y00844600D01*
Y00846933D02*
X00946150Y00849265D01*
X00939152Y00856263D02*
Y00851598D01*
X00942651D01*
X00941485Y00853930D01*
Y00855097D01*
X00942651Y00856263D01*
X00944984D01*
X00946150Y00855097D01*
Y00852764D01*
X00944984Y00851598D01*
X00527050Y00890320D02*
X00534048D01*
Y00886821D01*
X00532882Y00885655D01*
X00530549D01*
X00529383Y00886821D01*
Y00890320D01*
Y00887987D02*
X00527050Y00885655D01*
X00534048Y00878657D02*
X00532882Y00880990D01*
X00530549Y00883322D01*
X00528216D01*
X00527050Y00882156D01*
Y00879823D01*
X00528216Y00878657D01*
X00529383D01*
X00530549Y00879823D01*
Y00883322D01*
X00485140Y00897940D02*
Y00904938D01*
X00488639D01*
X00489805Y00903772D01*
Y00901439D01*
X00488639Y00900273D01*
X00485140D01*
X00487473D02*
X00489805Y00897940D01*
X00492138Y00904938D02*
X00496803D01*
Y00903772D01*
X00492138Y00899106D01*
Y00897940D01*
X00497840Y00739190D02*
X00504838D01*
Y00735691D01*
X00503671Y00734525D01*
X00501339D01*
X00500173Y00735691D01*
Y00739190D01*
Y00736857D02*
X00497840Y00734525D01*
X00503671Y00732192D02*
X00504838Y00731026D01*
Y00728693D01*
X00503671Y00727527D01*
X00502505D01*
X00501339Y00728693D01*
X00500173Y00727527D01*
X00499006D01*
X00497840Y00728693D01*
Y00731026D01*
X00499006Y00732192D01*
X00500173D01*
X00501339Y00731026D01*
X00502505Y00732192D01*
X00503671D01*
X00501339Y00731026D02*
Y00728693D01*
X00462280Y00786180D02*
Y00793178D01*
X00465779D01*
X00466945Y00792011D01*
Y00789679D01*
X00465779Y00788513D01*
X00462280D01*
X00464613D02*
X00466945Y00786180D01*
X00469278Y00787346D02*
X00470444Y00786180D01*
X00472777D01*
X00473943Y00787346D01*
Y00792011D01*
X00472777Y00793178D01*
X00470444D01*
X00469278Y00792011D01*
Y00790845D01*
X00470444Y00789679D01*
X00473943D01*
X00578612Y00886002D02*
Y00893000D01*
X00582111D01*
X00583277Y00891833D01*
Y00889501D01*
X00582111Y00888335D01*
X00578612D01*
X00580945D02*
X00583277Y00886002D01*
X00585610D02*
X00587942D01*
X00586776D01*
Y00893000D01*
X00585610Y00891833D01*
X00591441D02*
X00592607Y00893000D01*
X00594940D01*
X00596106Y00891833D01*
Y00887168D01*
X00594940Y00886002D01*
X00592607D01*
X00591441Y00887168D01*
Y00891833D01*
X00825500Y00760730D02*
X00818502D01*
Y00764229D01*
X00819669Y00765395D01*
X00822001D01*
X00823167Y00764229D01*
Y00760730D01*
Y00763063D02*
X00825500Y00765395D01*
Y00767728D02*
Y00770060D01*
Y00768894D01*
X00818502D01*
X00819669Y00767728D01*
X00825500Y00773559D02*
Y00775892D01*
Y00774725D01*
X00818502D01*
X00819669Y00773559D01*
X00654050Y00979170D02*
X00647052D01*
Y00982669D01*
X00648219Y00983835D01*
X00650551D01*
X00651717Y00982669D01*
Y00979170D01*
Y00981503D02*
X00654050Y00983835D01*
Y00986168D02*
Y00988500D01*
Y00987334D01*
X00647052D01*
X00648219Y00986168D01*
X00654050Y00996664D02*
Y00991999D01*
X00649385Y00996664D01*
X00648219D01*
X00647052Y00995498D01*
Y00993166D01*
X00648219Y00991999D01*
X00958850Y00712470D02*
X00951852D01*
Y00715969D01*
X00953018Y00717135D01*
X00955351D01*
X00956517Y00715969D01*
Y00712470D01*
Y00714803D02*
X00958850Y00717135D01*
Y00719468D02*
Y00721800D01*
Y00720634D01*
X00951852D01*
X00953018Y00719468D01*
Y00725299D02*
X00951852Y00726466D01*
Y00728798D01*
X00953018Y00729964D01*
X00954185D01*
X00955351Y00728798D01*
Y00727632D01*
Y00728798D01*
X00956517Y00729964D01*
X00957684D01*
X00958850Y00728798D01*
Y00726466D01*
X00957684Y00725299D01*
X00631190Y00779780D02*
X00624192D01*
Y00783279D01*
X00625359Y00784445D01*
X00627691D01*
X00628857Y00783279D01*
Y00779780D01*
Y00782113D02*
X00631190Y00784445D01*
Y00786778D02*
Y00789110D01*
Y00787944D01*
X00624192D01*
X00625359Y00786778D01*
X00631190Y00796108D02*
X00624192D01*
X00627691Y00792609D01*
Y00797274D01*
X00549910Y00952550D02*
X00542912D01*
Y00956049D01*
X00544078Y00957215D01*
X00546411D01*
X00547577Y00956049D01*
Y00952550D01*
Y00954883D02*
X00549910Y00957215D01*
Y00959548D02*
Y00961880D01*
Y00960714D01*
X00542912D01*
X00544078Y00959548D01*
X00542912Y00970044D02*
Y00965379D01*
X00546411D01*
X00545245Y00967712D01*
Y00968878D01*
X00546411Y00970044D01*
X00548744D01*
X00549910Y00968878D01*
Y00966545D01*
X00548744Y00965379D01*
X00572770Y00952550D02*
X00565772D01*
Y00956049D01*
X00566939Y00957215D01*
X00569271D01*
X00570437Y00956049D01*
Y00952550D01*
Y00954883D02*
X00572770Y00957215D01*
Y00959548D02*
Y00961880D01*
Y00960714D01*
X00565772D01*
X00566939Y00959548D01*
X00565772Y00970044D02*
X00566939Y00967712D01*
X00569271Y00965379D01*
X00571604D01*
X00572770Y00966545D01*
Y00968878D01*
X00571604Y00970044D01*
X00570437D01*
X00569271Y00968878D01*
Y00965379D01*
X00889000Y00889648D02*
Y00883816D01*
X00890166Y00882650D01*
X00892499D01*
X00893665Y00883816D01*
Y00889648D01*
X00900663Y00882650D02*
X00895998D01*
X00900663Y00887315D01*
Y00888482D01*
X00899497Y00889648D01*
X00897164D01*
X00895998Y00888482D01*
X00584822Y00798830D02*
X00590654D01*
X00591820Y00799996D01*
Y00802329D01*
X00590654Y00803495D01*
X00584822D01*
X00591820Y00809327D02*
X00584822D01*
X00588321Y00805828D01*
Y00810493D01*
X00895350Y00805828D02*
Y00799996D01*
X00896516Y00798830D01*
X00898849D01*
X00900015Y00799996D01*
Y00805828D01*
X00907013D02*
X00902348D01*
Y00802329D01*
X00904680Y00803495D01*
X00905847D01*
X00907013Y00802329D01*
Y00799996D01*
X00905847Y00798830D01*
X00903514D01*
X00902348Y00799996D01*
X00807720Y00954418D02*
Y00948586D01*
X00808886Y00947420D01*
X00811219D01*
X00812385Y00948586D01*
Y00954418D01*
X00819383D02*
X00817050Y00953251D01*
X00814718Y00950919D01*
Y00948586D01*
X00815884Y00947420D01*
X00818217D01*
X00819383Y00948586D01*
Y00949753D01*
X00818217Y00950919D01*
X00814718D01*
X00695960Y00861708D02*
X00700625Y00854710D01*
Y00861708D02*
X00695960Y00854710D01*
X00702958D02*
X00705290D01*
X00704124D01*
Y00861708D01*
X00702958Y00860542D01*
X00612775Y00626351D02*
Y00632183D01*
X00611609Y00633349D01*
X00609276D01*
X00608110Y00632183D01*
Y00626351D01*
X00605777Y00633349D02*
X00603445D01*
X00604611D01*
Y00626351D01*
X00605777Y00627518D01*
X00951749Y00905095D02*
X00950582Y00903929D01*
Y00901596D01*
X00951749Y00900430D01*
X00956414D01*
X00957580Y00901596D01*
Y00903929D01*
X00956414Y00905095D01*
X00957580Y00907428D02*
Y00909760D01*
Y00908594D01*
X00950582D01*
X00951749Y00907428D01*
Y00913259D02*
X00950582Y00914426D01*
Y00916758D01*
X00951749Y00917924D01*
X00952915D01*
X00954081Y00916758D01*
Y00915592D01*
Y00916758D01*
X00955247Y00917924D01*
X00956414D01*
X00957580Y00916758D01*
Y00914426D01*
X00956414Y00913259D01*
X00945398Y00809845D02*
X00944232Y00808679D01*
Y00806346D01*
X00945398Y00805180D01*
X00950064D01*
X00951230Y00806346D01*
Y00808679D01*
X00950064Y00809845D01*
X00951230Y00812178D02*
Y00814510D01*
Y00813344D01*
X00944232D01*
X00945398Y00812178D01*
X00951230Y00821508D02*
X00944232D01*
X00947731Y00818009D01*
Y00822674D01*
X00486410Y00843978D02*
Y00836980D01*
X00489909D01*
X00491075Y00838146D01*
Y00842812D01*
X00489909Y00843978D01*
X00486410D01*
X00498073D02*
X00495740Y00842812D01*
X00493408Y00840479D01*
Y00838146D01*
X00494574Y00836980D01*
X00496907D01*
X00498073Y00838146D01*
Y00839313D01*
X00496907Y00840479D01*
X00493408D01*
D55*
X01234691Y00807486D02*
X01219456D01*
X01227074Y00799868D01*
Y00810025D01*
X01219456Y00825260D02*
X01221996Y00820182D01*
X01227074Y00815103D01*
X01232152D01*
X01234691Y00817642D01*
Y00822721D01*
X01232152Y00825260D01*
X01229613D01*
X01227074Y00822721D01*
Y00815103D01*
X01234691Y00830338D02*
X01232152D01*
Y00832878D01*
X01234691D01*
Y00830338D01*
Y00850652D02*
X01219456D01*
X01227074Y00843034D01*
Y00853191D01*
X01221996Y00858269D02*
X01219456Y00860808D01*
Y00865887D01*
X01221996Y00868426D01*
X01224535D01*
X01227074Y00865887D01*
X01229613Y00868426D01*
X01232152D01*
X01234691Y00865887D01*
Y00860808D01*
X01232152Y00858269D01*
X01229613D01*
X01227074Y00860808D01*
X01224535Y00858269D01*
X01221996D01*
X01227074Y00860808D02*
Y00865887D01*
X00657617Y01165603D02*
X00667774D01*
Y01163064D01*
X00657617Y01152908D01*
Y01150368D01*
X00672852Y01163064D02*
X00675391Y01165603D01*
X00680470D01*
X00683009Y01163064D01*
Y01160525D01*
X00680470Y01157986D01*
X00677931D01*
X00680470D01*
X00683009Y01155447D01*
Y01152908D01*
X00680470Y01150368D01*
X00675391D01*
X00672852Y01152908D01*
X00688087Y01150368D02*
Y01152908D01*
X00690626D01*
Y01150368D01*
X00688087D01*
X00710940Y01165603D02*
X00705862Y01163064D01*
X00700783Y01157986D01*
Y01152908D01*
X00703322Y01150368D01*
X00708401D01*
X00710940Y01152908D01*
Y01155447D01*
X00708401Y01157986D01*
X00700783D01*
X00726175Y01165603D02*
X00721096Y01163064D01*
X00716018Y01157986D01*
Y01152908D01*
X00718557Y01150368D01*
X00723636D01*
X00726175Y01152908D01*
Y01155447D01*
X00723636Y01157986D01*
X00716018D01*
D56*
X00399032Y01022777D02*
X00396366Y01021444D01*
X00393700Y01018779D01*
Y01016113D01*
X00395033Y01014780D01*
X00397699D01*
X00399032Y01016113D01*
Y01017446D01*
X00397699Y01018779D01*
X00393700D01*
X00401697D02*
X00407029D01*
X00409695Y01021444D02*
X00411028Y01022777D01*
X00413694D01*
X00415026Y01021444D01*
Y01020112D01*
X00413694Y01018779D01*
X00415026Y01017446D01*
Y01016113D01*
X00413694Y01014780D01*
X00411028D01*
X00409695Y01016113D01*
Y01017446D01*
X00411028Y01018779D01*
X00409695Y01020112D01*
Y01021444D01*
X00411028Y01018779D02*
X00413694D01*
X00417692Y01020112D02*
X00419025D01*
Y01018779D01*
X00417692D01*
Y01020112D01*
Y01016113D02*
X00419025D01*
Y01014780D01*
X00417692D01*
Y01016113D01*
X00429688Y01021444D02*
X00428355Y01022777D01*
X00425690D01*
X00424357Y01021444D01*
Y01016113D01*
X00425690Y01014780D01*
X00428355D01*
X00429688Y01016113D01*
Y01018779D01*
X00427023D01*
X00432354Y01014780D02*
Y01022777D01*
X00437686Y01014780D01*
Y01022777D01*
X00440352D02*
Y01014780D01*
X00444350D01*
X00445683Y01016113D01*
Y01021444D01*
X00444350Y01022777D01*
X00440352D01*
X00393700Y01034991D02*
X00395033Y01036324D01*
X00397699D01*
X00399032Y01034991D01*
Y01033658D01*
X00397699Y01032325D01*
X00396366D01*
X00397699D01*
X00399032Y01030993D01*
Y01029660D01*
X00397699Y01028327D01*
X00395033D01*
X00393700Y01029660D01*
X00401697Y01032325D02*
X00407029D01*
X00415026Y01036324D02*
X00409695D01*
Y01032325D01*
X00412361Y01033658D01*
X00413694D01*
X00415026Y01032325D01*
Y01029660D01*
X00413694Y01028327D01*
X00411028D01*
X00409695Y01029660D01*
X00417692Y01033658D02*
X00419025D01*
Y01032325D01*
X00417692D01*
Y01033658D01*
Y01029660D02*
X00419025D01*
Y01028327D01*
X00417692D01*
Y01029660D01*
X00424357Y01036324D02*
X00429688D01*
Y01034991D01*
X00424357Y01029660D01*
Y01028327D01*
X00432354Y01032325D02*
X00437686D01*
X00440352Y01028327D02*
X00443017D01*
X00441684D01*
Y01036324D01*
X00440352Y01034991D01*
X00452348Y01028327D02*
X00447016D01*
X00452348Y01033658D01*
Y01034991D01*
X00451015Y01036324D01*
X00448349D01*
X00447016Y01034991D01*
X00455014Y01036324D02*
Y01030993D01*
X00457679Y01028327D01*
X00460345Y01030993D01*
Y01036324D01*
X00399032Y01041873D02*
X00393700D01*
X00399032Y01047205D01*
Y01048538D01*
X00397699Y01049871D01*
X00395033D01*
X00393700Y01048538D01*
X00401697Y01047205D02*
X00403030D01*
Y01045872D01*
X00401697D01*
Y01047205D01*
Y01043206D02*
X00403030D01*
Y01041873D01*
X00401697D01*
Y01043206D01*
X00408362Y01049871D02*
Y01041873D01*
X00412361D01*
X00413694Y01043206D01*
Y01048538D01*
X00412361Y01049871D01*
X00408362D01*
X00416359Y01041873D02*
Y01049871D01*
X00419025Y01047205D01*
X00421691Y01049871D01*
Y01041873D01*
X00424357Y01049871D02*
X00429688Y01041873D01*
Y01049871D02*
X00424357Y01041873D01*
X00432354Y01045872D02*
X00437686D01*
X00393700Y01055420D02*
X00396366D01*
X00395033D01*
Y01063417D01*
X00393700Y01062085D01*
X00400364Y01060752D02*
X00401697D01*
Y01059419D01*
X00400364D01*
Y01060752D01*
Y01056753D02*
X00401697D01*
Y01055420D01*
X00400364D01*
Y01056753D01*
X00407029Y01063417D02*
Y01055420D01*
X00411028D01*
X00412361Y01056753D01*
Y01062085D01*
X00411028Y01063417D01*
X00407029D01*
X00415027Y01055420D02*
Y01063417D01*
X00417692Y01060752D01*
X00420358Y01063417D01*
Y01055420D01*
X00423024Y01063417D02*
X00428355Y01055420D01*
Y01063417D02*
X00423024Y01055420D01*
X00431021Y01059419D02*
X00436353D01*
X00433687Y01062085D02*
Y01056753D01*
M02*
