M48
;Layer_Color=9474304
;FILE_FORMAT=4:4
METRIC
;TYPE=PLATED
T2F00S00C0.4000
T3F00S00C0.5000
T4F00S00C0.7000
T5F00S00C0.7620
T6F00S00C0.8000
T7F00S00C0.9000
T8F00S00C1.3000
T9F00S00C1.6000
T10F00S00C3.2500
;TYPE=NON_PLATED
T1F00S00C4.0000
%
T02
X00835660Y00716280
X00817880Y00782320
X00795020Y00774700
X00932180Y00734060
X00972820
Y00765810
X00740410Y00728980
X00641470Y00779900
X00534670Y00756920
X00525780Y00725220
X00472440Y00739190
X00495300Y00681990
X00548640Y00847090
X00603250Y00850950
X00612140Y00866190
X00621030Y00881380
X00618490Y00901700
X00653630Y00900850
X00664630
Y00889850
X00653630
X00703580Y00885190
X00715010Y00904290
X00707390Y00918260
X00689610Y00916940
X00690880Y00866190
Y00832990
X00711200Y00811530
X00650240Y00944930
X00638810Y00937310
X00558800Y00925880
X00481330Y00929690
X00608330Y01002080
X00660146Y01032560
X00811530Y00900430
X00847090Y00847090
X00835660Y00820420
X00861060Y00817880
X00930910Y00819150
X00977900Y00830580
Y00862330
X00938530Y00892810
T03
X00471170Y00948690
T04
X00482600Y00976680
X00508000
T05
X00847090Y00927100
X00872490
X00897890
X00923290
T06
X00469900Y00768400
X00509900
Y00875080
X00469900
X00728510Y01003300
X00778510
T07
X00414020Y00687070
Y00712470
Y00737870
Y00763270
X00439420Y00750570
Y00725170
Y00699770
Y00674370
Y00872490
Y00897890
Y00923290
Y00948690
X00414020Y00935990
Y00910590
Y00885190
Y00961390
T08
X01008380Y00651510
Y00689610
Y00727710
Y00765810
X01007110Y00880110
Y00918210
Y00956310
Y00994410
T09
X00862076Y00665480
X00912876
X00379920Y00640070
Y00797570
Y00838190
Y00995690
X00863600Y01016000
X00914400
T10
X00350420Y00661670
Y00775970
Y00859790
Y00974090
T01
X00762000Y00642670
X00362000Y01042670
X00762000Y00892670
M30
