G04 Layer_Color=16711935*
%FSAX44Y44*%
%MOMM*%
G71*
G01*
G75*
%ADD94C,1.8032*%
%ADD95C,4.2032*%
%ADD96C,1.2032*%
%ADD97C,1.7272*%
%ADD98C,2.4032*%
%ADD99C,3.4532*%
%ADD100C,3.2032*%
%ADD101C,2.0032*%
%ADD102C,1.7032*%
%ADD103C,1.0032*%
D94*
X00778510Y01003300D02*
D03*
X00728510D02*
D03*
X00509900Y00875080D02*
D03*
X00469900D02*
D03*
X00509900Y00768400D02*
D03*
X00469900D02*
D03*
D95*
X00762000Y00892670D02*
D03*
X00362000Y01042670D02*
D03*
X00762000Y00642670D02*
D03*
X00862076Y00665480D02*
D03*
X00912876D02*
D03*
X00914400Y01016000D02*
D03*
X00863600D02*
D03*
D96*
X00471170Y00948690D02*
D03*
D97*
X00847090Y00927100D02*
D03*
X00872490D02*
D03*
X00897890D02*
D03*
X00923290D02*
D03*
D98*
X01008380Y00651510D02*
D03*
Y00689610D02*
D03*
Y00727710D02*
D03*
Y00765810D02*
D03*
X01007110Y00880110D02*
D03*
Y00918210D02*
D03*
Y00956310D02*
D03*
Y00994410D02*
D03*
D99*
X00350420Y00661670D02*
D03*
Y00775970D02*
D03*
Y00859790D02*
D03*
Y00974090D02*
D03*
D100*
X00379920Y00797570D02*
D03*
Y00640070D02*
D03*
Y00995690D02*
D03*
Y00838190D02*
D03*
D101*
X00439420Y00674370D02*
D03*
X00414020Y00687070D02*
D03*
X00439420Y00699770D02*
D03*
X00414020Y00712470D02*
D03*
X00439420Y00725170D02*
D03*
X00414020Y00737870D02*
D03*
X00439420Y00750570D02*
D03*
X00414020Y00763270D02*
D03*
X00439420Y00872490D02*
D03*
X00414020Y00885190D02*
D03*
X00439420Y00897890D02*
D03*
X00414020Y00910590D02*
D03*
X00439420Y00923290D02*
D03*
X00414020Y00935990D02*
D03*
X00439420Y00948690D02*
D03*
X00414020Y00961390D02*
D03*
D102*
X00508000Y00976680D02*
D03*
X00482600D02*
D03*
D103*
X00664630Y00900850D02*
D03*
Y00889850D02*
D03*
X00653630Y00900850D02*
D03*
Y00889850D02*
D03*
X00660146Y01032560D02*
D03*
X00608330Y01002080D02*
D03*
X00707390Y00918260D02*
D03*
X00715010Y00904290D02*
D03*
X00689610Y00916940D02*
D03*
X00690880Y00866190D02*
D03*
X00603250Y00850950D02*
D03*
X00612140Y00866190D02*
D03*
X00638810Y00937310D02*
D03*
X00650240Y00944930D02*
D03*
X00558800Y00925880D02*
D03*
X00711200Y00811530D02*
D03*
X00938530Y00892810D02*
D03*
X00740410Y00728980D02*
D03*
X00534670Y00756920D02*
D03*
X00811530Y00900430D02*
D03*
X00703580Y00885190D02*
D03*
X00795020Y00774700D02*
D03*
X00817880Y00782320D02*
D03*
X00861060Y00817880D02*
D03*
X00847090Y00847090D02*
D03*
X00977900Y00862330D02*
D03*
Y00830580D02*
D03*
X00972820Y00765810D02*
D03*
Y00734060D02*
D03*
X00835660Y00716280D02*
D03*
X00930910Y00819150D02*
D03*
X00932180Y00734060D02*
D03*
X00835660Y00820420D02*
D03*
X00690880Y00832990D02*
D03*
X00641470Y00779900D02*
D03*
X00495300Y00681990D02*
D03*
X00548640Y00847090D02*
D03*
X00621030Y00881380D02*
D03*
X00618490Y00901700D02*
D03*
X00472440Y00739190D02*
D03*
X00525780Y00725220D02*
D03*
X00481330Y00929690D02*
D03*
M02*
